{
  "asset": {
    "version": "2.0",
    "generator": "babylon.js glTF exporter for 3dsmax 2024 v20250428.5"
  },
  "scene": 0,
  "scenes": [
    {
      "nodes": [
        0
      ]
    }
  ],
  "nodes": [
    {
      "mesh": 0,
      "translation": [
        1.67847247E-11,
        0.000654296833,
        0.0003839493
      ],
      "rotation": [
        0.7071068,
        -2.10734221E-08,
        2.10734257E-08,
        0.7071067
      ],
      "scale": [
        0.5921027,
        1.0,
        1.0
      ],
      "name": "Player_grade03"
    }
  ],
  "meshes": [
    {
      "primitives": [
        {
          "attributes": {
            "POSITION": 1,
            "NORMAL": 2,
            "TEXCOORD_0": 3
          },
          "indices": 0,
          "material": 0
        }
      ],
      "name": "Player_grade03"
    }
  ],
  "accessors": [
    {
      "bufferView": 0,
      "componentType": 5123,
      "count": 9492,
      "type": "SCALAR",
      "name": "accessorIndices"
    },
    {
      "bufferView": 1,
      "componentType": 5126,
      "count": 9492,
      "max": [
        0.586953,
        1.31690371,
        0.150316164
      ],
      "min": [
        -0.5869531,
        -2.22642136,
        -2.54252863
      ],
      "type": "VEC3",
      "name": "accessorPositions"
    },
    {
      "bufferView": 1,
      "byteOffset": 113904,
      "componentType": 5126,
      "count": 9492,
      "type": "VEC3",
      "name": "accessorNormals"
    },
    {
      "bufferView": 2,
      "componentType": 5126,
      "count": 9492,
      "type": "VEC2",
      "name": "accessorUVs"
    }
  ],
  "bufferViews": [
    {
      "buffer": 0,
      "byteLength": 18984,
      "name": "bufferViewScalar"
    },
    {
      "buffer": 0,
      "byteOffset": 18984,
      "byteLength": 227808,
      "byteStride": 12,
      "name": "bufferViewFloatVec3"
    },
    {
      "buffer": 0,
      "byteOffset": 246792,
      "byteLength": 75936,
      "byteStride": 8,
      "name": "bufferViewFloatVec2"
    }
  ],
  "buffers": [
    {
      "uri": "ship bb.bin",
      "byteLength": 322728
    }
  ],
  "materials": [
    {
      "pbrMetallicRoughness": {
        "baseColorTexture": {
          "index": 0
        },
        "metallicFactor": 0.0,
        "roughnessFactor": 0.450053632
      },
      "emissiveTexture": {
        "index": 0
      },
      "emissiveFactor": [
        1.0,
        1.0,
        1.0
      ],
      "name": "main_texture"
    }
  ],
  "textures": [
    {
      "sampler": 0,
      "source": 0,
      "name": "main.png"
    }
  ],
  "images": [
    {
      "uri": "main.png"
    }
  ],
  "samplers": [
    {
      "magFilter": 9729,
      "minFilter": 9987
    }
  ]
}